<?xml version="1.0" encoding="UTF-8" standalone="no"?>
<!DOCTYPE svg PUBLIC "-//W3C//DTD SVG 1.1//EN"
 "http://www.w3.org/Graphics/SVG/1.1/DTD/svg11.dtd">
<!-- Generated by graphviz version 2.40.1 (20161225.0304)
 -->
<!-- Title: elmarchitecture Pages: 1 -->
<svg width="332pt" height="127pt"
 viewBox="0.00 0.00 332.00 127.00" xmlns="http://www.w3.org/2000/svg" xmlns:xlink="http://www.w3.org/1999/xlink">
<g id="graph0" class="graph" transform="scale(1 1) rotate(0) translate(4 123)">
<title>elmarchitecture</title>
<polygon fill="#ffffff" stroke="transparent" points="-4,4 -4,-123 328,-123 328,4 -4,4"/>
<!-- Runtime -->
<g id="node1" class="node">
<title>Runtime</title>
<polygon fill="none" stroke="#000000" points="250,-119 106,-119 106,-83 250,-83 250,-119"/>
<text text-anchor="middle" x="178" y="-97.3" font-family="Times,serif" font-size="14.00" fill="#000000">Runtime</text>
</g>
<!-- view -->
<g id="node3" class="node">
<title>view</title>
<ellipse fill="none" stroke="#000000" cx="127" cy="-18" rx="27.0966" ry="18"/>
<text text-anchor="middle" x="127" y="-14.3" font-family="Times,serif" font-size="14.00" fill="#000000">view</text>
</g>
<!-- Runtime&#45;&gt;view -->
<g id="edge5" class="edge">
<title>Runtime&#45;&gt;view</title>
<path fill="none" stroke="#000000" d="M132.2994,-82.8281C125.3819,-78.067 119.1731,-72.191 115,-65 111.4216,-58.8338 111.5221,-51.6061 113.2598,-44.6932"/>
<polygon fill="#000000" stroke="#000000" points="116.6719,-45.5454 116.7391,-34.9507 110.0797,-43.191 116.6719,-45.5454"/>
<text text-anchor="middle" x="129" y="-57" font-family="Times,serif" font-size="10.00" fill="#000000">Model</text>
</g>
<!-- update -->
<g id="node4" class="node">
<title>update</title>
<ellipse fill="none" stroke="#000000" cx="264" cy="-18" rx="34.394" ry="18"/>
<text text-anchor="middle" x="264" y="-14.3" font-family="Times,serif" font-size="14.00" fill="#000000">update</text>
</g>
<!-- Runtime&#45;&gt;update -->
<g id="edge3" class="edge">
<title>Runtime&#45;&gt;update</title>
<path fill="none" stroke="#000000" d="M185.8646,-82.6091C190.4825,-73.2843 196.99,-62.2245 205,-54 212.0213,-46.7907 220.7744,-40.4412 229.371,-35.162"/>
<polygon fill="#000000" stroke="#000000" points="231.2913,-38.0946 238.1938,-30.0568 227.7854,-32.0358 231.2913,-38.0946"/>
<text text-anchor="middle" x="239.5" y="-57" font-family="Times,serif" font-size="10.00" fill="#000000">Message+Model</text>
</g>
<!-- init -->
<g id="node2" class="node">
<title>init</title>
<ellipse fill="none" stroke="#000000" cx="27" cy="-18" rx="27" ry="18"/>
<text text-anchor="middle" x="27" y="-14.3" font-family="Times,serif" font-size="14.00" fill="#000000">init</text>
</g>
<!-- init&#45;&gt;view -->
<g id="edge1" class="edge">
<title>init&#45;&gt;view</title>
<path fill="none" stroke="#000000" d="M54.0614,-18C64.9774,-18 77.7557,-18 89.5405,-18"/>
<polygon fill="#000000" stroke="#000000" points="89.5692,-21.5001 99.5692,-18 89.5691,-14.5001 89.5692,-21.5001"/>
<text text-anchor="middle" x="76.8512" y="-24" font-family="Times,serif" font-size="10.00" fill="#000000">Model</text>
</g>
<!-- view&#45;&gt;Runtime -->
<g id="edge2" class="edge">
<title>view&#45;&gt;Runtime</title>
<path fill="none" stroke="#000000" d="M135.9769,-35.2093C140.8078,-44.2107 146.9942,-55.3379 153,-65 154.9633,-68.1586 157.0882,-71.4233 159.2414,-74.6384"/>
<polygon fill="#000000" stroke="#000000" points="156.3785,-76.6523 164.9157,-82.9266 162.1545,-72.6979 156.3785,-76.6523"/>
<text text-anchor="middle" x="167.5" y="-57" font-family="Times,serif" font-size="10.00" fill="#000000">HTML</text>
</g>
<!-- update&#45;&gt;Runtime -->
<g id="edge4" class="edge">
<title>update&#45;&gt;Runtime</title>
<path fill="none" stroke="#000000" d="M273.749,-35.367C277.6583,-44.8397 279.9872,-56.3604 274,-65 270.5889,-69.9223 262.3384,-74.7442 252.0283,-79.1783"/>
<polygon fill="#000000" stroke="#000000" points="250.5042,-76.0178 242.5076,-82.968 253.093,-82.5215 250.5042,-76.0178"/>
<text text-anchor="middle" x="300.5" y="-57" font-family="Times,serif" font-size="10.00" fill="#000000">new Model</text>
</g>
</g>
</svg>
